# xmcd
#
# Track frame offsets: 
#        182
#        13907
#        27757
#        42432
#        56057
#        66377
#        79232
#        91307
#        104207
#        118382
#        131957
#        145995
#        158407
#        173470
#        187282
#        198157
#        211482
#        225507
#        238932
#        253157
#
# Disc length: 3480 seconds
#
# Revision: 7
# Processed by: cddbd v1.5.2PL0 Copyright (c) Steve Scherf et al.
# Submitted via: ExactAudioCopyFreeDBPlugin 1.0
#
DISCID=2f0d9614
DTITLE=Billie Holiday - The Gold Collection [CD1]
DYEAR=1997
DGENRE=Jazz
TTITLE0=What A Little Moonlight Can Do
TTITLE1=Twenty Four Hours A Day
TTITLE2=These N'That N'Those
TTITLE3=Let's Call A Heart A Heart
TTITLE4=Please Keep Me In Your Dreams
TTITLE5=You're So Desirable
TTITLE6=Hello My Darling
TTITLE7=Let's Dream In The Moonlight
TTITLE8=More Than You Know
TTITLE9=Under A Blue Jungle Moon
TTITLE10=Night And Day
TTITLE11=What Is This Going To Get Us?
TTITLE12=Loveless Love
TTITLE13=Georgia On My Mind
TTITLE14=Romance In The Dark
TTITLE15=God Bless The Child
TTITLE16=Jim
TTITLE17=Wherever You Are
TTITLE18=Until The Real Thing Comes Along
TTITLE19=Do You Know What It Means...
EXTD=
EXTT0=
EXTT1=
EXTT2=
EXTT3=
EXTT4=
EXTT5=
EXTT6=
EXTT7=
EXTT8=
EXTT9=
EXTT10=
EXTT11=
EXTT12=
EXTT13=
EXTT14=
EXTT15=
EXTT16=
EXTT17=
EXTT18=
EXTT19=
PLAYORDER=
